<svg xmlns="http://www.w3.org/2000/svg" viewBox="50 30 60 80" version="1.1">
    <path fill="#eee" stroke="#eee" d="m64.771 35.97c12.157 9.6259 24.312 19.251 36.468 28.877 7.5177 5.9536-0.90458 11.198-5.5543 14.861-8.2283 6.4901-16.459 12.982-24.687 19.471-2.0183 1.5896-4.0356 3.1802-6.053 4.7727-3.7026 2.921-11.759 1.9483-11.759-3.8445v-20.454-30.785-8.8368c0-5.3566 7.882-6.9954 11.585-4.0621m-1.0617 66.778c12.034-9.493 24.069-18.984 36.101-28.472 6.4-5.053-1.162-9.299-5.187-12.487-7.936-6.284-15.873-12.569-23.811-18.854-2.2397-1.7742-4.4794-3.5493-6.7201-5.3225-2.1498-1.7032-9.1954-2.1536-9.1954 1.9095v20.454 29.692 9.1074c0.000946 4.4104 5.0169 6.9822 8.8131 3.9704"/>
    <path fill="#eee" stroke="#eee" d="m54.042 39.348v50.322c0 5.1238-2.1035 14.647 5.3906 15.006 6.3066 0.30563 13.436-8.0609 17.881-11.569 7.362-5.806 14.724-11.611 22.088-17.419 7.098-5.595 1.838-9.749-3.412-13.905-7.909-6.262-15.819-12.527-23.729-18.79-2.546-2.017-5.091-4.033-7.638-6.049-2.56-2.028-10.581-2.348-10.581 2.404"/>
</svg>